<?xml version="1.0" standalone="no"?>
<!DOCTYPE svg PUBLIC "-//W3C//DTD SVG 20010904//EN"
 "http://www.w3.org/TR/2001/REC-SVG-20010904/DTD/svg10.dtd">
<svg version="1.0" xmlns="http://www.w3.org/2000/svg"
 width="340.000000pt" height="340.000000pt" viewBox="0 0 340.000000 340.000000"
 preserveAspectRatio="xMidYMid meet">
<metadata>
Created by potrace 1.11, written by Peter Selinger 2001-2013
</metadata>
<g transform="translate(0.000000,340.000000) scale(0.100000,-0.100000)"
fill="#000000" stroke="none">
<path d="M2460 3171 c0 -5 4 -21 10 -35 12 -31 6 -32 -27 -6 -15 11 -28 19
-29 17 -2 -2 16 -67 40 -146 l44 -142 -51 -38 c-29 -20 -74 -53 -102 -72 l-50
-34 40 -5 40 -5 -55 -41 c-30 -22 -66 -47 -78 -56 -22 -15 -22 -17 -5 -22 10
-3 53 -5 96 -4 42 0 79 -1 82 -4 11 -10 -110 -78 -139 -78 -46 0 -116 37 -272
143 -225 153 -294 182 -413 175 -173 -11 -300 -128 -332 -308 l-12 -66 -64
-12 c-305 -58 -600 -309 -721 -612 -174 -439 -16 -948 378 -1212 l75 -50 26
-82 c35 -111 79 -193 131 -243 60 -58 134 -77 298 -77 111 -1 130 2 172 22 25
13 54 32 64 43 18 20 17 25 -42 216 -2 7 9 15 24 19 397 84 697 371 794 761
33 132 31 341 -5 475 -104 392 -406 674 -799 748 -77 14 -79 19 -49 87 20 43
62 73 101 73 30 0 84 -30 165 -91 103 -77 237 -164 297 -192 174 -81 313 -57
465 78 34 31 64 52 66 48 2 -5 19 -55 37 -113 l32 -105 58 167 c32 92 60 171
64 176 3 5 83 7 188 4 101 -2 181 -2 178 1 -3 2 -38 29 -78 60 l-73 56 42 3
42 3 -99 74 c-54 41 -101 76 -103 78 -2 1 19 68 47 148 27 80 48 145 45 145
-3 0 -19 -10 -36 -22 -27 -19 -30 -20 -24 -4 27 70 24 72 -44 24 -35 -25 -93
-66 -128 -91 l-65 -45 -118 89 c-64 49 -120 89 -123 89 -3 0 -5 -4 -5 -9z
m145 -226 l98 -75 81 57 c44 31 88 62 97 70 8 7 18 13 22 13 3 0 -12 -53 -34
-117 -21 -64 -36 -120 -31 -123 4 -4 45 -35 92 -70 47 -35 90 -67 95 -72 6 -6
-39 -8 -119 -7 l-129 3 -41 -118 -41 -118 -38 121 -38 120 -126 3 -126 3 99
69 c55 38 101 71 103 73 4 3 -48 182 -65 228 -4 8 -4 15 -1 15 2 0 48 -34 102
-75z m-842 -202 c37 -18 130 -75 207 -127 167 -114 226 -145 288 -152 59 -7
82 2 166 65 57 44 73 51 112 51 39 0 46 -3 55 -27 5 -15 8 -37 5 -49 -8 -29
-112 -123 -178 -160 -47 -26 -63 -29 -139 -29 -82 0 -90 2 -181 47 -52 26
-153 90 -226 142 -166 121 -203 140 -257 134 -91 -11 -135 -73 -144 -208 -5
-77 -8 -86 -31 -97 -29 -15 -109 -17 -130 -3 -24 15 -20 170 5 239 33 90 119
171 215 202 14 5 57 7 95 6 55 -2 85 -9 138 -34z m124 -472 c52 -24 78 -63 78
-116 0 -40 0 -40 37 -40 48 0 81 -31 81 -76 0 -44 -32 -69 -90 -69 -43 0 -83
25 -94 58 -3 9 -14 9 -43 1 -27 -8 -51 -7 -87 1 -130 31 -151 182 -34 240 50
25 98 25 152 1z m-564 -41 c85 -43 150 -134 183 -257 22 -84 20 -239 -6 -338
-26 -102 -95 -243 -154 -318 -83 -102 -223 -187 -311 -187 -47 0 -83 47 -126
165 -46 128 -59 125 -59 -17 l0 -112 -44 43 c-92 91 -131 201 -129 371 0 94 6
132 27 205 64 213 200 383 362 451 79 33 185 30 257 -6z m-670 -261 c-17 -17
-37 -1 -22 17 8 10 15 12 23 4 7 -7 7 -13 -1 -21z m-19 -15 c9 -3 16 -10 16
-16 0 -5 -5 -6 -12 -2 -8 5 -9 2 -5 -9 3 -10 2 -17 -3 -17 -6 0 -10 -7 -10
-15 0 -8 -11 -52 -24 -99 -61 -207 -52 -418 24 -624 23 -61 24 -66 9 -56 -8 4
-8 0 0 -15 9 -16 9 -21 -1 -21 -9 0 -9 -3 -2 -8 6 -4 10 -29 9 -57 -1 -27 2
-56 8 -62 5 -7 5 -13 1 -13 -20 0 -87 129 -123 236 -75 227 -59 478 45 692 24
50 46 92 48 92 3 0 11 -3 20 -6z m1298 -53 c73 -28 155 -103 191 -173 116
-229 -16 -488 -274 -538 -146 -29 -320 48 -394 174 l-24 41 31 65 c40 86 78
237 78 316 l0 63 47 28 c26 15 67 33 92 40 65 18 184 10 253 -16z m-842 -864
c115 -76 271 -117 444 -117 131 0 204 16 403 91 72 27 135 49 139 49 24 0
-206 -206 -305 -272 -118 -80 -151 -92 -260 -90 -108 2 -189 14 -281 43 -205
65 -299 176 -308 364 l-5 90 59 -61 c33 -33 84 -77 114 -97z m280 -622 c71
-14 160 -75 160 -109 0 -41 -73 -77 -172 -84 -197 -13 -367 90 -274 168 40 33
183 45 286 25z"/>
<path d="M1584 2734 c3 -9 9 -27 12 -41 6 -21 8 -23 16 -10 5 9 4 26 -4 41
-12 28 -34 37 -24 10z"/>
<path d="M1773 2657 l-2 -52 15 33 c10 24 12 38 4 52 -6 11 -12 20 -13 20 -1
0 -3 -24 -4 -53z"/>
<path d="M1416 2671 c5 -4 32 -16 59 -24 l50 -17 -30 25 c-27 22 -103 38 -79
16z"/>
<path d="M1915 2582 c-8 -52 0 -66 15 -26 7 18 8 36 2 49 -8 17 -10 14 -17
-23z"/>
<path d="M1360 2506 c29 -17 76 -21 85 -6 3 6 -4 10 -18 10 -14 0 -40 3 -58 6
l-34 5 25 -15z"/>
<path d="M2037 2475 l-17 -50 21 21 c14 14 19 31 17 50 -3 27 -5 25 -21 -21z"/>
<path d="M2355 2435 c3 -11 9 -32 12 -47 3 -16 9 -28 14 -28 17 0 9 48 -12 71
-18 21 -20 22 -14 4z"/>
<path d="M1345 2420 c-7 -11 58 -22 79 -14 9 3 14 10 11 14 -6 10 -84 10 -90
0z"/>
<path d="M2280 2378 c1 -49 2 -51 14 -29 13 24 10 67 -5 77 -5 3 -9 -19 -9
-48z"/>
<path d="M1261 1767 c2 -1 13 -9 24 -17 19 -14 19 -14 6 3 -7 9 -18 17 -24 17
-6 0 -8 -1 -6 -3z"/>
<path d="M1207 1681 c-27 -128 23 -188 73 -87 11 23 20 52 20 65 0 20 -1 21
-16 7 -28 -28 -57 -15 -66 29 -3 15 -6 11 -11 -14z"/>
<path d="M635 1980 c-3 -5 -1 -10 4 -10 6 0 11 5 11 10 0 6 -2 10 -4 10 -3 0
-8 -4 -11 -10z"/>
<path d="M1600 1624 c0 -40 -23 -62 -46 -43 -14 11 -15 10 -12 -10 1 -13 12
-30 23 -37 48 -32 89 51 50 102 -14 18 -14 17 -15 -12z"/>
<path d="M1388 393 c7 -3 16 -2 19 1 4 3 -2 6 -13 5 -11 0 -14 -3 -6 -6z"/>
<path d="M1238 243 c7 -3 16 -2 19 1 4 3 -2 6 -13 5 -11 0 -14 -3 -6 -6z"/>
</g>
</svg>
